<?xml version="1.0" encoding="iso-8859-1"?>
<!-- Generator: Adobe Illustrator 19.0.0, SVG Export Plug-In . SVG Version: 6.00 Build 0)  -->
<svg version="1.1" id="Layer_1" xmlns="http://www.w3.org/2000/svg" xmlns:xlink="http://www.w3.org/1999/xlink" x="0px" y="0px"
	 viewBox="0 0 512 512" style="enable-background:new 0 0 512 512;" xml:space="preserve">
<path style="fill:#FF5E5B;" d="M477.887,512H79.158c-12.426,0-22.5-10.074-22.5-22.5v-467c0-12.426,10.074-22.5,22.5-22.5h398.729
	c12.426,0,22.5,10.074,22.5,22.5v467C500.387,501.926,490.314,512,477.887,512z"/>
<path style="fill:#FF423D;" d="M477.887,0H278.522v512h199.365c12.426,0,22.5-10.074,22.5-22.5v-467
	C500.387,10.074,490.314,0,477.887,0z"/>
<path style="fill:#48AEE2;" d="M385.373,359.454l-59.277-102.686l-26.909,46.616c-4.02,6.962-11.448,11.25-19.485,11.25
	c-8.038,0-15.468-4.287-19.487-11.249l-12.899-22.34l-45.27,78.407c-4.02,6.962-11.447,11.25-19.485,11.25h-30.375
	c-12.426,0-22.5-10.074-22.5-22.5V95.529c0-12.426,10.074-22.5,22.5-22.5h252.675c12.426,0,22.5,10.074,22.5,22.5v252.675
	C427.361,371.274,396.822,379.28,385.373,359.454z"/>
<path style="fill:#39A3DB;" d="M404.861,73.029H278.523v241.566c0.392,0.021,0.783,0.039,1.179,0.039
	c8.037,0,15.467-4.289,19.485-11.25l26.909-46.616l59.277,102.686c11.471,19.863,41.987,11.785,41.987-11.249V95.529
	C427.361,83.103,417.287,73.029,404.861,73.029z"/>
<path style="fill:#1DA49C;" d="M424.347,336.956l-78.765-136.44c-8.658-14.994-30.332-14.967-38.973,0l-28.086,48.653v85.916
	l14.077,24.374c8.657,14.988,15.827,11.247,112.26,11.247C422.172,370.704,432.986,351.921,424.347,336.956z"/>
<path style="fill:#F2C500;" d="M195.518,217.949c-36.737,0-65.838-26.073-65.838-42.713v-72.753
	c0-13.406,15.935-29.462,29.462-29.462h72.753c16.109,0,42.713,28.547,42.713,65.838
	C274.607,182.469,239.127,217.949,195.518,217.949z"/>
<path style="fill:#65C6BB;" d="M312.084,370.704H182.559c-17.313,0-28.127-18.785-19.485-33.75l64.755-112.155
	c8.657-14.993,30.329-14.967,38.97-0.002l64.769,112.152C340.227,351.944,329.369,370.704,312.084,370.704z"/>
<path style="fill:#F2C500;" d="M404.865,445.248H152.181c-12.426,0-22.5-10.074-22.5-22.5c0-12.426,10.074-22.5,22.5-22.5h252.684
	c12.426,0,22.5,10.074,22.5,22.5C427.365,435.174,417.291,445.248,404.865,445.248z"/>
<g>
	<path style="fill:#FF423D;" d="M79.158,118.023H34.113c-12.426,0-22.5-10.074-22.5-22.5s10.074-22.5,22.5-22.5h45.045
		c12.426,0,22.5,10.074,22.5,22.5S91.584,118.023,79.158,118.023z"/>
	<path style="fill:#FF423D;" d="M79.158,225.008H34.113c-12.426,0-22.5-10.074-22.5-22.5c0-12.426,10.074-22.5,22.5-22.5h45.045
		c12.426,0,22.5,10.074,22.5,22.5C101.658,214.934,91.584,225.008,79.158,225.008z"/>
	<path style="fill:#FF423D;" d="M79.158,331.992H34.113c-12.426,0-22.5-10.074-22.5-22.5c0-12.426,10.074-22.5,22.5-22.5h45.045
		c12.426,0,22.5,10.074,22.5,22.5C101.658,321.918,91.584,331.992,79.158,331.992z"/>
	<path style="fill:#FF423D;" d="M79.158,438.977H34.113c-12.426,0-22.5-10.074-22.5-22.5s10.074-22.5,22.5-22.5h45.045
		c12.426,0,22.5,10.074,22.5,22.5S91.584,438.977,79.158,438.977z"/>
</g>
<path style="fill:#D1D3D4;" d="M334.86,174.543h-27.927c-12.426,0-22.5-10.074-22.5-22.5c0-12.426,10.074-22.5,22.5-22.5h27.927
	c12.426,0,22.5,10.074,22.5,22.5C357.36,164.469,347.286,174.543,334.86,174.543z"/>
<path style="fill:#57BDB7;" d="M331.568,336.951l-53.046-91.854v125.607h33.561C329.399,370.704,340.212,351.917,331.568,336.951z"
	/>
<path style="fill:#F59D00;" d="M404.865,400.248H278.523v45h126.342c12.426,0,22.5-10.074,22.5-22.5
	C427.365,410.322,417.291,400.248,404.865,400.248z"/>
<g>
</g>
<g>
</g>
<g>
</g>
<g>
</g>
<g>
</g>
<g>
</g>
<g>
</g>
<g>
</g>
<g>
</g>
<g>
</g>
<g>
</g>
<g>
</g>
<g>
</g>
<g>
</g>
<g>
</g>
</svg>
