<svg xmlns="http://www.w3.org/2000/svg" xmlns:xlink="http://www.w3.org/1999/xlink" version="1.1" width="256" height="256" viewBox="0 0 256 256" xml:space="preserve">
<desc>Created with Fabric.js 1.7.22</desc>
<defs>
</defs>
<g transform="translate(128 128) scale(0.72 0.72)" style="">
	<g style="stroke: none; stroke-width: 0; stroke-dasharray: none; stroke-linecap: butt; stroke-linejoin: miter; stroke-miterlimit: 10; fill: none; fill-rule: nonzero; opacity: 1;" transform="translate(-175.05 -175.05000000000004) scale(3.89 3.89)" >
	<path d="M 85.414 11.8 H 4.586 C 2.053 11.8 0 13.853 0 16.386 v 57.228 C 0 76.147 2.053 78.2 4.586 78.2 h 80.828 c 2.533 0 4.586 -2.053 4.586 -4.586 V 16.386 C 90 13.853 87.947 11.8 85.414 11.8 z M 36.475 25.917 c 3.922 0 7.101 3.179 7.101 7.101 c 0 3.922 -3.179 7.101 -7.101 7.101 c -3.922 0 -7.101 -3.179 -7.101 -7.101 C 29.375 29.096 32.554 25.917 36.475 25.917 z M 81.269 73.163 H 8.731 c -2.273 0 -4.116 -1.843 -4.116 -4.116 l 15.26 -18.195 c 2.753 -3.282 7.745 -3.448 10.71 -0.355 l 0.963 1.005 c 2.991 3.12 8.038 2.919 10.771 -0.43 l 7.714 -9.451 c 2.809 -3.441 8.034 -3.542 10.973 -0.21 l 24.38 27.637 C 85.385 71.32 83.542 73.163 81.269 73.163 z" style="stroke: none; stroke-width: 1; stroke-dasharray: none; stroke-linecap: butt; stroke-linejoin: miter; stroke-miterlimit: 10; fill: rgb(0,0,0); fill-rule: nonzero; opacity: 1;" transform=" matrix(1 0 0 1 0 0) " stroke-linecap="round" />
</g>
</g>
</svg>