<?xml version="1.0" encoding="UTF-8" standalone="no"?>
<!-- Created with Inkscape (http://www.inkscape.org/) -->

<svg
   width="1805.4607"
   height="393.61081"
   viewBox="0 0 477.69481 104.14286"
   version="1.1"
   id="svg1212"
   xmlns="http://www.w3.org/2000/svg"
   xmlns:svg="http://www.w3.org/2000/svg">
  <defs
     id="defs1209">
    <rect
       x="1300.4082"
       y="202.39973"
       width="243.86417"
       height="42.525551"
       id="rect10122" />
  </defs>
  <g
     id="layer1"
     transform="translate(30.47143,11.957143)">
    <rect
       style="fill:#800000;fill-rule:evenodd;stroke-width:0.331436"
       id="rect1282"
       width="477.69482"
       height="104.14286"
       x="-30.47143"
       y="-11.957143" />
    <g
       aria-label="Gallery Creator"
       transform="matrix(0.94024171,0,0,1.0635563,6.879167,0)"
       id="text4850"
       style="font-size:51.4691px;line-height:1.25;fill:#008080;stroke-width:0.268068">
      <path
         d="M 2.0072191,40.655173 H -0.67057653 V 35.676736 H 11.058923 q 0,4.299559 -0.603447,6.392766 -0.5845895,2.017775 -2.4515033,4.092124 -1.8291984,2.055491 -4.4315632,2.998377 -2.60236477,0.942886 -5.5818838,0.942886 -4.4315632,0 -8.0522447,-1.470902 -3.639539,-1.433187 -5.619599,-4.752145 -1.998918,-3.262384 -1.998918,-7.316793 0,-6.128758 4.035551,-9.881443 3.9978358,-3.752686 9.8060122,-3.752686 4.846433,0 7.5996594,2.357215 v -1.829199 h 6.3173344 v 9.16485 H 3.7609866 Q 2.9312472,30.924592 1.5923493,30.057137 0.27230925,29.189682 -1.500316,29.189682 q -2.4892185,0 -3.6583969,1.621763 -1.1503206,1.621764 -1.1503206,5.959039 0,4.318416 1.2068938,5.864749 1.2257515,1.565191 3.5641082,1.565191 3.5452506,0 3.5452506,-3.545251 z"
         style="font-size:38.6206px"
         id="path34445" />
      <path
         d="M 29.105758,45.011305 V 41.67349 q -1.263467,-0.678878 -2.677796,-0.678878 -1.244609,0 -1.98006,0.678878 -0.735451,0.697735 -0.735451,1.772625 0,1.112605 0.754309,1.810341 0.773166,0.716593 1.772625,0.716593 1.772626,0 2.866373,-0.961744 z m -7.109359,-8.504829 -7.42994,-0.754309 q 1.225752,-2.696653 3.960121,-3.790401 2.696653,-1.093747 7.957956,-1.093747 1.942344,0 3.469819,0.132004 1.546333,0.113146 2.753227,0.358296 2.508076,0.471443 3.71497,1.452044 1.206894,0.999459 1.678336,2.14978 0.490301,1.188036 0.490301,3.696112 v 5.280161 h 2.338357 v 5.751603 H 29.105758 V 48.44341 q -2.451503,1.584048 -6.562485,1.584048 -3.865832,0 -5.827034,-1.697195 -1.98006,-1.697194 -1.98006,-4.016693 0,-2.564649 2.432645,-4.205271 2.413788,-1.640621 6.298477,-1.640621 3.545251,0 5.638457,0.924028 v -0.546874 q 0,-1.697194 -0.24515,-2.376072 -0.264008,-0.716593 -1.169179,-1.225751 -0.942885,-0.490301 -2.187495,-0.490301 -2.281783,0 -3.507535,1.753768 z"
         style="font-size:38.6206px"
         id="path34442" />
      <path
         d="M 56.392872,49.688019 H 43.286759 v -5.751603 h 1.942345 V 29.20854 h -1.942345 v -5.751604 h 11.427776 v 20.47948 h 1.678337 z"
         style="font-size:38.6206px"
         id="path34439" />
      <path
         d="M 72.063633,49.688019 H 58.95752 v -5.751603 h 1.942345 V 29.20854 H 58.95752 v -5.751604 h 11.427776 v 20.47948 h 1.678337 z"
         style="font-size:38.6206px"
         id="path34436" />
      <path
         d="m 84.321147,39.10884 h 5.336734 q 0.03771,-0.565731 0.03771,-0.641162 0,-1.48976 -0.754308,-2.470361 -0.754309,-0.961743 -1.998918,-0.961743 -1.282325,0 -1.961203,1.056032 -0.678877,1.07489 -0.678877,2.64008 0,0.207435 0.01886,0.377154 z m 6.034469,4.78986 7.825952,0.961744 q -0.528016,1.225751 -1.470902,2.206352 -0.942885,0.961744 -2.300641,1.678337 -2.734369,1.470902 -6.543627,1.470902 -6.392766,0 -9.617435,-2.658938 -3.22467,-2.64008 -3.22467,-6.920782 0,-4.186413 3.186954,-6.977355 3.149239,-2.790941 8.542546,-2.790941 5.185871,0 8.448256,2.64008 3.205812,2.621222 3.413247,7.976813 H 84.208001 q 0.05657,4.450421 3.318958,4.450421 1.961202,0 2.828657,-2.036633 z"
         style="font-size:38.6206px"
         id="path34433" />
      <path
         d="M 116.30384,49.688019 H 101.5571 v -5.751603 h 2.48922 v -6.788778 h -2.48922 v -5.751603 h 11.35235 v 4.582425 q 0.64116,-1.716053 1.98006,-2.960662 1.28232,-1.225751 2.60236,-1.602906 1.26347,-0.358296 3.71497,-0.358296 v 8.052244 q -0.32058,-0.01886 -0.79202,-0.01886 -2.90409,0 -4.31842,0.584589 -1.4709,0.603447 -1.99892,1.584048 -0.54687,1.018317 -0.56573,2.677796 h 2.77209 z"
         style="font-size:38.6206px"
         id="path34430" />
      <path
         d="m 135.97244,58.079702 h -7.99568 v -5.563026 h 3.07381 l 0.92403,-1.866914 -7.01507,-13.502124 h -1.41433 v -5.751603 h 12.46495 v 5.751603 h -2.01777 l 3.18695,7.18479 2.9418,-7.18479 h -1.77262 v -5.751603 h 9.44771 v 5.751603 h -1.82919 z"
         style="font-size:38.6206px"
         id="path34427" />
      <path
         d="m 180.68408,38.128239 6.80764,2.39493 q -0.86746,4.205271 -3.97898,6.883066 -3.14924,2.696654 -8.67455,2.696654 -7.54309,0 -11.16377,-3.941263 -3.63954,-3.922405 -3.63954,-9.57972 0,-5.69503 3.56411,-9.674008 3.56411,-3.978978 9.25914,-3.978978 4.62014,0 7.52423,2.281784 v -1.753768 h 6.29847 v 9.57972 h -6.54362 q -0.50916,-1.791483 -1.71605,-2.828657 -1.2069,-1.018317 -2.75323,-1.018317 -4.26185,0 -4.26185,7.335651 0,7.354509 4.41271,7.354509 3.86583,0 4.86529,-5.751603 z"
         style="font-size:38.6206px"
         id="path34424" />
      <path
         d="m 205.10482,49.688019 h -14.74673 v -5.751603 h 2.48922 v -6.788778 h -2.48922 v -5.751603 h 11.35235 v 4.582425 q 0.64116,-1.716053 1.98006,-2.960662 1.28232,-1.225751 2.60236,-1.602906 1.26347,-0.358296 3.71497,-0.358296 v 8.052244 q -0.32058,-0.01886 -0.79202,-0.01886 -2.90409,0 -4.31842,0.584589 -1.4709,0.603447 -1.99892,1.584048 -0.54687,1.018317 -0.56573,2.677796 h 2.77208 z"
         style="font-size:38.6206px"
         id="path34421" />
      <path
         d="m 221.02072,39.10884 h 5.33674 q 0.0377,-0.565731 0.0377,-0.641162 0,-1.48976 -0.75431,-2.470361 -0.7543,-0.961743 -1.99891,-0.961743 -1.28233,0 -1.96121,1.056032 -0.67887,1.07489 -0.67887,2.64008 0,0.207435 0.0189,0.377154 z m 6.03447,4.78986 7.82596,0.961744 q -0.52802,1.225751 -1.47091,2.206352 -0.94288,0.961744 -2.30064,1.678337 -2.73437,1.470902 -6.54362,1.470902 -6.39277,0 -9.61744,-2.658938 -3.22467,-2.64008 -3.22467,-6.920782 0,-4.186413 3.18695,-6.977355 3.14924,-2.790941 8.54255,-2.790941 5.18587,0 8.44826,2.64008 3.20581,2.621222 3.41324,7.976813 h -14.40729 q 0.0566,4.450421 3.31896,4.450421 1.9612,0 2.82865,-2.036633 z"
         style="font-size:38.6206px"
         id="path34418" />
      <path
         d="M 253.07886,45.011305 V 41.67349 q -1.26347,-0.678878 -2.6778,-0.678878 -1.2446,0 -1.98006,0.678878 -0.73545,0.697735 -0.73545,1.772625 0,1.112605 0.75431,1.810341 0.77317,0.716593 1.77263,0.716593 1.77262,0 2.86637,-0.961744 z m -7.10936,-8.504829 -7.42994,-0.754309 q 1.22575,-2.696653 3.96012,-3.790401 2.69666,-1.093747 7.95796,-1.093747 1.94234,0 3.46982,0.132004 1.54633,0.113146 2.75322,0.358296 2.50808,0.471443 3.71497,1.452044 1.2069,0.999459 1.67834,2.14978 0.4903,1.188036 0.4903,3.696112 v 5.280161 h 2.33836 v 5.751603 H 253.07886 V 48.44341 q -2.4515,1.584048 -6.56248,1.584048 -3.86584,0 -5.82704,-1.697195 -1.98006,-1.697194 -1.98006,-4.016693 0,-2.564649 2.43265,-4.205271 2.41378,-1.640621 6.29847,-1.640621 3.54525,0 5.63846,0.924028 v -0.546874 q 0,-1.697194 -0.24515,-2.376072 -0.26401,-0.716593 -1.16918,-1.225751 -0.94288,-0.490301 -2.18749,-0.490301 -2.28179,0 -3.50754,1.753768 z"
         style="font-size:38.6206px"
         id="path34415" />
      <path
         d="m 282.23286,43.012387 v 5.6196 q -0.92403,0.622304 -2.67779,1.093747 -1.84806,0.490301 -3.54525,0.490301 -2.13093,0 -3.6584,-0.697736 -1.56519,-0.716593 -2.35722,-1.923487 -0.43372,-0.697735 -0.64116,-1.263467 -0.20743,-0.584589 -0.30172,-1.301182 -0.13201,-1.244609 -0.13201,-4.808717 v -3.073808 h -2.33835 v -5.751603 h 2.33835 v -2.8098 l 9.48544,-4.506994 v 7.316794 h 3.82811 v 5.751603 h -3.82811 v 3.54525 q 0,1.73491 0.32058,2.319499 0.30172,0.58459 1.28232,0.58459 0.92403,0 2.22521,-0.58459 z"
         style="font-size:38.6206px"
         id="path34412" />
      <path
         d="m 294.9241,40.485454 q 0,4.37499 3.13039,4.37499 3.31895,0 3.31895,-4.412706 0,-2.017775 -0.81088,-3.130381 -0.82974,-1.112605 -2.33836,-1.112605 -1.48976,0 -2.39493,1.093748 -0.90517,1.093747 -0.90517,3.186954 z m -9.59857,-0.03772 q 0,-4.035551 3.39439,-6.807635 3.39438,-2.772084 9.16485,-2.772084 5.80817,0 9.44771,2.677795 3.63954,2.677796 3.63954,6.977355 0,4.148697 -3.46982,6.920782 -3.46982,2.772084 -9.16485,2.772084 -6.14761,0 -9.57972,-2.772084 -3.4321,-2.753227 -3.4321,-6.996213 z"
         style="font-size:38.6206px"
         id="path34409" />
      <path
         d="m 328.62285,49.688019 h -14.74674 v -5.751603 h 2.48922 v -6.788778 h -2.48922 v -5.751603 h 11.35235 v 4.582425 q 0.64116,-1.716053 1.98006,-2.960662 1.28232,-1.225751 2.60236,-1.602906 1.26347,-0.358296 3.71497,-0.358296 v 8.052244 q -0.32058,-0.01886 -0.79202,-0.01886 -2.90409,0 -4.31842,0.584589 -1.4709,0.603447 -1.99892,1.584048 -0.54687,1.018317 -0.56573,2.677796 h 2.77209 z"
         style="font-size:38.6206px"
         id="path34406" />
    </g>
    <text
       xml:space="preserve"
       transform="matrix(0.26458334,0,0,0.26458334,-30.47143,-11.957143)"
       id="text10120"
       style="font-style:normal;font-variant:normal;font-weight:normal;font-stretch:normal;font-size:85.3333px;line-height:1.25;font-family:'Gill Sans Ultra Bold Condensed';-inkscape-font-specification:'Gill Sans Ultra Bold Condensed, ';white-space:pre;shape-inside:url(#rect10122);fill:#000000;fill-opacity:1;stroke:none" />
    <g
       aria-label="&lt;/&gt;"
       transform="scale(0.75640693,1.3220397)"
       id="text12900"
       style="font-size:67.1596px;line-height:1.25;font-family:'Gill Sans Ultra Bold Condensed';-inkscape-font-specification:'Gill Sans Ultra Bold Condensed, ';fill:#008080;stroke-width:0.349789">
      <path
         d="m 494.32598,41.687806 v 8.690085 L 457.4669,35.063666 v -7.345581 l 36.85908,-15.281433 v 8.690085 L 468.8132,31.390875 Z"
         style="font-weight:800;font-family:'Rockwell Extra Bold';-inkscape-font-specification:'Rockwell Extra Bold,  Ultra-Bold';fill:#008080"
         id="path51691" />
      <path
         d="M 505.93462,55.165636 H 498.3267 L 509.44345,7.9112498 h 7.7063 z"
         style="font-weight:800;font-family:'Rockwell Extra Bold';-inkscape-font-specification:'Rockwell Extra Bold,  Ultra-Bold';fill:#008080"
         id="path51693" />
      <path
         d="m 521.18326,21.126737 v -8.690085 l 36.85908,15.281433 v 7.345581 l -36.85908,15.314225 v -8.690085 l 25.51278,-10.296931 z"
         style="font-weight:800;font-family:'Rockwell Extra Bold';-inkscape-font-specification:'Rockwell Extra Bold,  Ultra-Bold';fill:#008080"
         id="path51695" />
    </g>
  </g>
</svg>
