<?xml version="1.0" encoding="utf-8"?>
<svg version="1.1" id="Layer_1" x="0px" y="0px" viewBox="0 0 18.042 16.35055" width="18.042" height="16.35055" xmlns="http://www.w3.org/2000/svg">
  <g id="g66" transform="matrix(0.05833794,0,0,0.05833794,0,-0.84572512)" style="opacity: 0.32;">
    <path style="fill:#d0994b" d="M 280.273,120.972 V 62.82 c 0,-10.67 -8.659,-19.329 -19.329,-19.329 H 125.64 c 0,0 -18.324,-28.994 -28.994,-28.994 H 48.323 c -10.67,0 -19.329,8.65 -19.329,19.329 v 87.146 z" id="path56"/>
    <path style="fill:#e4e7e7" d="M 28.994,72.484 H 280.273 V 149.8 H 28.994 Z" id="path58"/>
    <path style="fill:#3db39e" d="m 251.279,178.794 c 32.028,0 57.988,25.969 57.988,57.988 0,32.009 -25.959,57.988 -57.988,57.988 -32.009,0 -57.988,-25.978 -57.988,-57.988 0.001,-32.018 25.979,-57.988 57.988,-57.988 z" id="path60"/>
    <path style="fill:#ffffff" d="m 270.609,227.117 h -9.665 v -9.665 c 0,-5.345 -4.32,-9.665 -9.665,-9.665 -5.345,0 -9.665,4.32 -9.665,9.665 v 9.665 h -9.665 c -5.345,0 -9.665,4.32 -9.665,9.665 0,5.354 4.32,9.665 9.665,9.665 h 9.665 v 9.665 c 0,5.354 4.32,9.665 9.665,9.665 5.345,0 9.665,-4.31 9.665,-9.665 v -9.665 h 9.665 c 5.345,0 9.665,-4.31 9.665,-9.665 -10e-4,-5.344 -4.321,-9.665 -9.665,-9.665 z" id="path62"/>
    <path style="fill:#f4b459" d="m 179.597,236.783 c 0,-39.586 32.106,-71.682 71.682,-71.682 19.126,0 36.455,7.538 49.318,19.754 l 8.669,-73.712 c 0,-10.679 -8.659,-19.329 -19.329,-19.329 H 19.329 C 8.659,91.814 0,100.463 0,111.143 l 19.329,164.298 c 0,10.67 8.659,19.329 19.329,19.329 h 170.609 c -17.947,-13.037 -29.67,-34.126 -29.67,-57.987 z" id="path64"/>
  </g>
  <g id="g68" transform="translate(-30.674581,-16.094577)"/>
  <g id="g70" transform="translate(-30.674581,-16.094577)"/>
  <g id="g72" transform="translate(-30.674581,-16.094577)"/>
  <g id="g74" transform="translate(-30.674581,-16.094577)"/>
  <g id="g76" transform="translate(-30.674581,-16.094577)"/>
  <g id="g78" transform="translate(-30.674581,-16.094577)"/>
  <g id="g80" transform="translate(-30.674581,-16.094577)"/>
  <g id="g82" transform="translate(-30.674581,-16.094577)"/>
  <g id="g84" transform="translate(-30.674581,-16.094577)"/>
  <g id="g86" transform="translate(-30.674581,-16.094577)"/>
  <g id="g88" transform="translate(-30.674581,-16.094577)"/>
  <g id="g90" transform="translate(-30.674581,-16.094577)"/>
  <g id="g92" transform="translate(-30.674581,-16.094577)"/>
  <g id="g94" transform="translate(-30.674581,-16.094577)"/>
  <g id="g96" transform="translate(-30.674581,-16.094577)"/>
</svg>