<?xml version="1.0" encoding="utf-8"?>
<svg version="1.1" id="Capa_1" x="0px" y="0px" viewBox="0 0 18 18" width="18" height="18" xmlns="http://www.w3.org/2000/svg">
  <g id="g597" transform="scale(0.32142857)" style="opacity: 0.33;">
    <g id="g587">
      <path style="fill:#3abca7" d="M 43.636,52 H 8.364 C 3.745,52 0,48.255 0,43.636 V 8.364 C 0,3.745 3.745,0 8.364,0 H 43.636 C 48.255,0 52,3.745 52,8.364 V 43.636 C 52,48.255 48.255,52 43.636,52 Z" id="path573"/>
      <path style="fill:#ffffff" d="M 44,14 H 26 c -0.552,0 -1,-0.447 -1,-1 0,-0.553 0.448,-1 1,-1 h 18 c 0.552,0 1,0.447 1,1 0,0.553 -0.448,1 -1,1 z" id="path575"/>
      <path style="fill:#ffffff" d="M 44,28 H 26 c -0.552,0 -1,-0.447 -1,-1 0,-0.553 0.448,-1 1,-1 h 18 c 0.552,0 1,0.447 1,1 0,0.553 -0.448,1 -1,1 z" id="path577"/>
      <path style="fill:#ffffff" d="M 44,42 H 26 c -0.552,0 -1,-0.447 -1,-1 0,-0.553 0.448,-1 1,-1 h 18 c 0.552,0 1,0.447 1,1 0,0.553 -0.448,1 -1,1 z" id="path579"/>
      <path style="fill:#ffffff" d="m 12.071,17 c -0.209,0 -0.42,-0.065 -0.6,-0.2 L 6.9,13.371 C 6.458,13.04 6.369,12.413 6.7,11.972 c 0.331,-0.441 0.958,-0.531 1.4,-0.2 l 3.822,2.866 6.248,-7.288 c 0.36,-0.42 0.992,-0.468 1.41,-0.108 0.419,0.359 0.468,0.99 0.108,1.409 l -6.857,8 C 12.633,16.881 12.354,17 12.071,17 Z" id="path581"/>
      <path style="fill:#ffffff" d="m 12.071,31 c -0.209,0 -0.42,-0.065 -0.6,-0.2 L 6.9,27.371 C 6.458,27.04 6.369,26.413 6.7,25.972 c 0.331,-0.441 0.958,-0.531 1.4,-0.2 l 3.822,2.866 6.248,-7.288 c 0.36,-0.42 0.992,-0.468 1.41,-0.108 0.419,0.359 0.468,0.99 0.108,1.409 l -6.857,8 C 12.633,30.881 12.354,31 12.071,31 Z" id="path583"/>
      <path style="fill:#ffffff" d="m 12.071,45.999 c -0.209,0 -0.42,-0.065 -0.6,-0.2 L 6.9,42.37 C 6.458,42.039 6.369,41.412 6.7,40.971 7.031,40.53 7.658,40.44 8.1,40.771 l 3.822,2.866 6.248,-7.287 c 0.36,-0.421 0.992,-0.469 1.41,-0.108 0.419,0.359 0.468,0.99 0.108,1.409 l -6.857,7.999 c -0.198,0.23 -0.477,0.349 -0.76,0.349 z" id="path585"/>
    </g>
    <g id="g595">
      <path style="fill:#ffffff" d="m 54.805,46.679 -0.107,0.163 c -7.121,10.876 -18.773,10.876 -25.893,0 v 0 l 0.107,-0.163 c 7.121,-10.876 18.773,-10.876 25.893,0 z" id="path589"/>
      <circle style="fill:#556080" cx="41.569" cy="44.396999" r="5.9089999" id="circle591"/>
      <path style="fill:#b1d3ef" d="M 41.752,56 C 36.498,56 31.604,52.942 27.969,47.391 l -0.358,-0.547 0.465,-0.711 c 3.635,-5.552 8.53,-8.609 13.784,-8.609 5.253,0 10.148,3.057 13.783,8.609 L 56,46.679 55.535,47.39 C 51.9,52.942 47.005,56 41.752,56 Z M 30.008,46.839 C 33.214,51.463 37.365,54 41.752,54 c 4.436,0 8.63,-2.594 11.85,-7.317 -3.206,-4.624 -7.356,-7.161 -11.743,-7.161 -4.437,0 -8.63,2.594 -11.851,7.317 z" id="path593"/>
    </g>
  </g>
  <g id="g599"/>
  <g id="g601"/>
  <g id="g603"/>
  <g id="g605"/>
  <g id="g607"/>
  <g id="g609"/>
  <g id="g611"/>
  <g id="g613"/>
  <g id="g615"/>
  <g id="g617"/>
  <g id="g619"/>
  <g id="g621"/>
  <g id="g623"/>
  <g id="g625"/>
  <g id="g627"/>
</svg>