<?xml version="1.0" encoding="utf-8"?>
<svg width="18" height="18" viewBox="0 0 18 18" fill="none" version="1.1" id="svg714" xmlns="http://www.w3.org/2000/svg">
  <path d="m 13.384615,4.384615 c 0,-0.382347 -0.309971,-0.692307 -0.692312,-0.692307 -0.382342,0 -0.692312,0.30996 -0.692312,0.692307 z m -0.692312,2.7692313 v 0.692304 c 0.382341,0 0.692312,-0.309968 0.692312,-0.692304 z M 9.9230831,6.461539 c -0.382342,0 -0.692312,0.3099598 -0.692312,0.6923073 0,0.382336 0.30997,0.692304 0.692312,0.692304 z m 3.2129459,3.995451 c 0.127006,-0.360655 -0.0622,-0.7559147 -0.422946,-0.8830247 -0.360663,-0.12701 -0.756,0.06225 -0.883033,0.422865 z M 9.5147101,5.3437105 9.6111801,4.658151 Z M 11.999991,4.384615 v 2.7692313 h 1.384624 V 4.384615 Z m 0.692312,2.076924 H 9.9230831 V 7.8461503 H 12.692303 Z M 11.83005,9.9968303 C 11.61387,10.61031 11.204205,11.13692 10.66275,11.49729 l 0.76716,1.152655 c 0.791455,-0.52671 1.39014,-1.29637 1.706119,-2.192955 z m -1.1673,1.5004597 c -0.541482,0.36047 -1.1854329,0.535105 -1.8349149,0.497725 l -0.07963,1.3824 c 0.949105,0.0546 1.8902669,-0.200675 2.6816319,-0.72747 z m -1.8349149,0.497725 c -0.649376,-0.03736 -1.269029,-0.28477 -1.765604,-0.70486 l -0.8943602,1.05702 c 0.7257322,0.61402 1.6313972,0.9756 2.5803992,1.03024 z m -1.765604,-0.70486 C 6.5656709,10.869965 6.219119,10.29987 6.074796,9.6656303 L 4.7246955,9.9729253 C 4.9356449,10.899875 5.4421469,11.73314 6.1678709,12.347175 Z M 6.074796,9.6656303 C 5.9304652,9.0314753 5.99617,8.3675103 6.2620067,7.7739653 L 4.9983219,7.2080313 C 4.6097814,8.0756253 4.5137434,9.0459753 4.7246955,9.9729253 Z M 6.2620067,7.7739653 C 6.5278428,7.1803383 6.9794201,6.6891688 7.5487471,6.374493 L 6.8788531,5.162686 C 6.0468564,5.622591 5.3868546,6.340421 4.9983219,7.2080313 Z M 7.5487471,6.374493 c 0.569253,-0.314687 1.22538,-0.4358505 1.869488,-0.3452315 L 9.6111801,4.658151 c -0.941375,-0.1324345 -1.900351,0.04463 -2.732327,0.504535 z m 1.869488,-0.3452315 c 0.484915,0.068215 0.9289849,0.2828675 1.3983889,0.5963533 0.235376,0.157154 0.467444,0.332391 0.713249,0.5210415 0.240459,0.184513 0.498732,0.385557 0.76238,0.5722 L 13.09238,6.5888208 C 12.856235,6.4216615 12.625015,6.2416985 12.372829,6.048185 12.125991,5.858788 11.86227,5.658941 11.58562,5.474169 11.031035,5.103784 10.386,4.767157 9.6111801,4.658151 Z m 7.1971409,2.9707388 c 0,4.2058097 -3.409571,7.6153797 -7.6153759,7.6153797 V 18 C 13.970595,18 18,13.97059 18,9.0000003 Z M 9.0000001,16.61538 c -4.2058617,0 -7.6153841,-3.40957 -7.6153841,-7.6153797 H 0 C 0,13.97059 4.0294349,18 9.0000001,18 Z M 1.384616,9.0000003 c 0,-4.2058618 3.4095224,-7.6153848 7.6153841,-7.6153848 V 0 C 4.0294349,0 0,4.0294345 0,9.0000003 Z M 9.0000001,1.3846155 c 4.2058049,0 7.6153759,3.409523 7.6153759,7.6153848 H 18 C 18,4.0294345 13.970595,0 9.0000001,0 Z" fill="#001a72" id="path712" style="stroke-width: 0.92308; opacity: 0.33;"/>
</svg>