<?xml version="1.0" encoding="utf-8"?>
<svg width="17" height="17" viewBox="0 0 17 17" fill="none" version="1.1" id="svg714" xmlns="http://www.w3.org/2000/svg">
  <path d="m 12.641025,4.141025 c 0,-0.361105 -0.292751,-0.653845 -0.653852,-0.653845 -0.361102,0 -0.653852,0.29274 -0.653852,0.653845 z m -0.653852,2.6153853 v 0.653843 c 0.361101,0 0.653852,-0.292748 0.653852,-0.653843 z M 9.3718011,6.102565 c -0.361101,0 -0.653851,0.2927398 -0.653851,0.6538453 0,0.361095 0.29275,0.653843 0.653851,0.653843 z m 3.0344479,3.7734838 c 0.119946,-0.3406213 -0.05872,-0.7139225 -0.399446,-0.8339705 -0.340633,-0.119954 -0.714,0.058792 -0.833978,0.399373 z M 8.9861151,5.0468375 9.0772261,4.399365 Z M 11.333321,4.141025 v 2.6153853 h 1.307704 V 4.141025 Z m 0.653852,1.96154 H 9.3718011 V 7.4102533 H 11.987173 Z M 11.172825,9.4414513 C 10.968655,10.02085 10.581745,10.5182 10.070375,10.85855 l 0.72454,1.088625 c 0.74749,-0.49745 1.31291,-1.22435 1.611334,-2.0711262 z M 10.070375,10.85855 C 9.5589756,11.199 8.9507991,11.363925 8.3374001,11.328625 l -0.07521,1.3056 c 0.896377,0.0516 1.7852519,-0.189525 2.5326569,-0.68705 z m -1.7329749,0.470075 c -0.6133,-0.03528 -1.198528,-0.26895 -1.667515,-0.6657 l -0.8446736,0.9983 c 0.6854136,0.5799 1.5407636,0.9214 2.4370436,0.973 z m -1.667515,-0.6657 C 6.2009115,10.266075 5.873612,9.7276545 5.737307,9.1286513 l -1.2750945,0.290223 c 0.19923,0.8754507 0.677593,1.6624257 1.362999,2.2423507 z M 5.737307,9.1286513 C 5.6009952,8.5297263 5.663049,7.9026483 5.9141177,7.3420783 L 4.7206369,6.8075853 C 4.3536824,7.6269793 4.2629795,8.5434213 4.4622125,9.4188743 Z M 5.9141177,7.3420783 C 6.1651848,6.7814303 6.5916741,6.3175485 7.1293721,6.0203545 L 6.4966945,4.87587 C 5.7109204,5.310225 5.0875846,5.988175 4.7206369,6.8075853 Z M 7.1293721,6.0203545 C 7.6670001,5.72315 8.2866755,5.6087175 8.8950001,5.6943025 L 9.0772261,4.399365 C 8.1881491,4.2742875 7.2824501,4.441515 6.4966945,4.87587 Z m 1.765628,-0.326052 c 0.457975,0.064425 0.8773719,0.2671525 1.3207039,0.5632223 0.222296,0.1484237 0.441474,0.313925 0.673619,0.4920955 0.227099,0.174262 0.471022,0.364137 0.72003,0.540411 L 12.36503,6.2227748 C 12.141995,6.0649025 11.923625,5.8949375 11.685449,5.712175 11.452321,5.5333 11.203255,5.344555 10.94197,5.1700485 10.418195,4.82024 9.809,4.502315 9.0772261,4.399365 Z m 6.7972959,2.8056978 c 0,3.9721497 -3.220151,7.1922997 -7.1922959,7.1922997 V 17 C 13.194455,17 17,13.19445 17,8.5000003 Z M 8.5000001,15.6923 C 4.5277974,15.6923 1.307693,12.47215 1.307693,8.5000003 H 0 C 0,13.19445 3.8055775,17 8.5000001,17 Z M 1.307693,8.5000003 c 0,-3.9722028 3.2201044,-7.1923078 7.1923071,-7.1923078 V 0 C 3.8055775,0 0,3.8055775 0,8.5000003 Z M 8.5000001,1.3076925 c 3.9721449,0 7.1922959,3.220105 7.1922959,7.1923078 H 17 C 17,3.8055775 13.194455,0 8.5000001,0 Z" fill="#001a72" id="path712" style="stroke-width: 0.8718; opacity: 0.33;"/>
</svg>